<svg xmlns="http://www.w3.org/2000/svg" version="1.1" xmlns:xlink="http://www.w3.org/1999/xlink" xmlns:svgjs="http://svgjs.dev/svgjs" viewBox="0 0 17.29808349609375 17.374830369683565"><g transform="matrix(0.8571428571428572,0,0,0.8571428571428572,2.4711547851562488,13.6484793792709)"><rect width="20.25784428569919" height="20.25784428569919" x="-2.921387352810532" y="-15.916830369683563" fill="#ececd9"></rect><g clip-path="url(#SvgjsClipPath2112)"><path d=" M 0.9656265632050935 -13.033816453667939 L 13.449443016873031 -13.033816453667939 L 13.449443016873031 -0.5500000000000007 L 0.9656265632050935 -0.5500000000000007 Z M 1.2153028922784523 -12.78414012459458 L 1.2153028922784523 -0.7996763290733604 L 13.199766687799672 -0.7996763290733604 L 13.199766687799672 -12.78414012459458 Z" fill="#173054" transform="matrix(1,0,0,1,0,0)" fill-rule="nonzero"></path><g clip-path="url(#SvgjsClipPath2107979ef1cd-49ef-4205-b9f1-e0ecd36e79c4)"><path d=" M 11.352812009572691 -6.305396989709855 C 11.412739437186994 -6.183107944964997 11.514279914150498 -6.043231617524818 11.637232828763425 -5.851763117480521 C 11.850577421603099 -5.519512054938046 11.96625938051814 -5.450627652913302 11.830545411774578 -5.33408160940808 C 11.806161366144282 -5.313122289287654 11.573037666282971 -5.180316702823249 11.467735260067085 -5.1365961300833565 C 11.3289021567053 -5.078881602029276 11.298606507964111 -5.081874285244056 11.294844578711729 -4.838560709788759 C 11.303664564101771 -4.704838350649396 11.393150007270519 -4.559946117539374 11.401969992660563 -4.426318596952596 C 11.414499219218222 -4.23621998711225 11.15932028707333 -4.215566257883474 11.153408683962441 -4.125480170548377 C 11.14453601048763 -3.9900401798456056 11.503257566817185 -4.020947010370092 11.279723098383519 -3.831723022736881 C 11.175674668585092 -3.7436180073890366 11.170700913383062 -3.519809560914581 11.169794678325063 -3.2795518943757784 C 11.167750380636095 -2.7405000991217268 10.74302119171009 -2.9170578711768833 10.240524389667579 -2.908395950041145 C 10.076811972678685 -2.905561331080664 9.92422727919264 -2.895750809696999 9.782022138405749 -2.8796914814599255 C 9.334278794053398 -2.829205758635915 9.12256753184151 -2.561455449465555 9.006948798628189 -2.3159289744500224 L 6.307885742637743 -2.3159289744500224 C 6.317369597895856 -3.758528735378171 5.8796159144153775 -4.263491339787793 5.524803813975556 -4.658778426945835 C 5.441506547721922 -4.75042488166798 5.365962775670326 -4.848829518065527 5.29895106981213 -4.952978154669378 C 5.195469187962251 -5.1341563490483635 5.10519779845142 -5.32256657566364 5.028840334444193 -5.5167406616792745 L 6.012969456961365 -5.5167406616792745 L 6.012969456961365 -7.569658121317707 L 4.862472437983021 -7.569658121317707 C 4.930917928540673 -7.85459375573125 5.037987511449802 -8.128837247346144 5.180708469977401 -8.3847744055184 L 6.329919899687419 -8.3847744055184 L 6.329919899687419 -9.595209389728002 C 6.763234703425305 -9.871144433870516 7.253937257547896 -10.044283107584482 7.764468921263123 -10.101373282470316 L 7.764468921263123 -9.754369556193005 L 8.458845190411118 -9.754369556193005 L 8.458845190411118 -10.102184678975732 C 8.907157566078958 -10.054470349410483 9.361539609111986 -9.911643489223337 9.799883399141855 -9.656443481844537 C 10.744580759019199 -9.10656955397929 11.11789691482929 -7.940792990418435 11.043490801520935 -7.137447224354751 C 11.016019234123275 -6.840918683284496 11.169741990240292 -6.678555081265642 11.352780396721826 -6.305407527326807 Z M 3.794084530306009 -4.633751586681383 L 4.48851348753877 -4.633751586681383 L 4.48851348753877 -3.939396392767293 L 3.794084530306009 -3.939396392767293 L 3.794084530306009 -4.633751586681383 Z M 3.8544334625984553 -11.101835711265348 L 4.3072664759393255 -11.101835711265348 L 4.3072664759393255 -10.649013235541432 L 3.8544229249815016 -10.649013235541432 L 3.8544229249815016 -11.101835711265348 Z M 2.526093082296632 -6.96582105703381 L 2.9789366332544556 -6.96582105703381 L 2.9789366332544556 -6.513009118926844 L 2.526093082296632 -6.513009118926844 L 2.526093082296632 -6.96582105703381 Z M 3.0845867808298078 -9.486640322256541 L 4.171404980558414 -9.486640322256541 L 4.171404980558414 -8.399864272995753 L 3.0845867808298078 -8.399864272995753 L 3.0845867808298078 -9.486682472724357 Z M 6.601632352832287 -11.267813715899237 L 7.296008621980279 -11.267813715899237 L 7.296008621980279 -10.573447984368197 L 6.601632352832287 -10.573447984368197 L 6.601632352832287 -11.267813715899237 Z M 4.944792301623423 -9.769954691667168 L 4.944792301623423 -8.569446142627722 L 6.145248162578102 -8.569446142627722 L 6.145248162578102 -9.769954691667168 Z M 7.099734968605206 -6.1960270633499315 L 7.099734968605206 -5.229896190589256 L 8.065834228515019 -5.229896190589256 L 8.065834228515019 -6.1960270633499315 Z M 4.201574177896161 -7.328125403127539 L 4.201574177896161 -5.758241767018593 L 5.771415663537289 -5.758241767018593 L 5.771415663537289 -7.3281570159784 Z M 6.948815218597808 -6.346946813357327 L 6.948815218597808 -5.079039666283581 L 8.216764516139373 -5.079039666283581 L 8.216764516139373 -6.3469784262081905 Z M 6.57051476996873 -4.370437614248415 L 6.57051476996873 -3.8856123958368514 L 7.0553189131463885 -3.8856123958368514 L 7.0553189131463885 -4.370437614248415 Z M 6.978931727850785 -8.716825253338753 L 6.978931727850785 -7.539467848746055 L 8.156320745294348 -7.539467848746055 L 8.156320745294348 -8.716856866189618 Z M 8.442237906092474 -7.027107837235105 L 8.442237906092474 -6.542282618823542 L 8.92704204927013 -6.542282618823542 L 8.92704204927013 -7.027107837235105 Z M 9.468707173528637 -8.687509602974236 L 9.468707173528637 -8.20270545979658 L 9.95350077908934 -8.20270545979658 L 9.95350077908934 -8.687541215825103 Z M 9.408337166002285 -5.698746381699378 L 9.408337166002285 -5.213921163287819 L 9.893257222966433 -5.213921163287819 L 9.893257222966433 -5.698735844082431 Z" fill="#173054" transform="matrix(1,0,0,1,0,0)" fill-rule="evenodd"></path></g></g><g><path d=" M 0.47250000000000003 0.1140000000000001 Q 0.741 0.1140000000000001 0.8715 0.24825000000000008 Q 1.002 0.3825000000000002 1.002 0.6330000000000001 Q 1.002 0.7965000000000002 0.93825 0.9187500000000002 Q 0.8745 1.0410000000000001 0.753 1.1085000000000003 Q 0.6315000000000001 1.1760000000000002 0.459 1.1760000000000002 Q 0.4365 1.1760000000000002 0.399 1.1745 Q 0.3615 1.1730000000000003 0.32175 1.1722500000000002 Q 0.28200000000000003 1.1715000000000002 0.249 1.1715000000000002 Q 0.1965 1.1715000000000002 0.1455 1.1722500000000002 Q 0.0945 1.1730000000000003 0.063 1.1760000000000002 L 0.063 1.1460000000000001 Q 0.114 1.1430000000000002 0.14025 1.1340000000000001 Q 0.1665 1.1250000000000002 0.17550000000000002 1.098 Q 0.1845 1.0710000000000002 0.1845 1.0170000000000001 L 0.1845 0.27300000000000013 Q 0.1845 0.21750000000000014 0.17550000000000002 0.19125000000000014 Q 0.1665 0.16500000000000004 0.14025 0.1552500000000001 Q 0.114 0.14550000000000018 0.063 0.14400000000000013 L 0.063 0.1140000000000001 Q 0.0945 0.11550000000000016 0.1455 0.11775000000000024 Q 0.1965 0.1200000000000001 0.246 0.11850000000000005 Q 0.2985 0.11700000000000021 0.3645 0.11550000000000016 Q 0.4305 0.1140000000000001 0.47250000000000003 0.1140000000000001 M 0.435 0.14100000000000024 Q 0.366 0.14100000000000024 0.34500000000000003 0.1665000000000001 Q 0.324 0.19200000000000017 0.324 0.27000000000000013 L 0.324 1.0200000000000002 Q 0.324 1.098 0.34575 1.1235000000000002 Q 0.3675 1.1490000000000002 0.4365 1.1490000000000002 Q 0.6 1.1490000000000002 0.6900000000000001 1.0897500000000002 Q 0.78 1.0305000000000002 0.8160000000000001 0.9165000000000001 Q 0.852 0.8025000000000002 0.852 0.6390000000000001 Q 0.852 0.4710000000000002 0.81225 0.3607500000000001 Q 0.7725 0.25050000000000017 0.68175 0.1957500000000001 Q 0.591 0.14100000000000024 0.435 0.14100000000000024 M 1.59453369140625 0.3825000000000002 Q 1.63503369140625 0.3825000000000002 1.66578369140625 0.39900000000000013 Q 1.69653369140625 0.4155000000000001 1.7137836914062499 0.4417500000000001 Q 1.73103369140625 0.4680000000000002 1.73103369140625 0.5010000000000001 Q 1.73103369140625 0.5385000000000001 1.70778369140625 0.5670000000000002 Q 1.68453369140625 0.5955000000000001 1.64553369140625 0.5955000000000001 Q 1.61403369140625 0.5955000000000001 1.59003369140625 0.5752500000000002 Q 1.56603369140625 0.5550000000000002 1.56603369140625 0.5175000000000002 Q 1.56603369140625 0.4890000000000001 1.58178369140625 0.4687500000000001 Q 1.59753369140625 0.4485000000000001 1.61703369140625 0.4365000000000001 Q 1.60653369140625 0.4215000000000001 1.58553369140625 0.4215000000000001 Q 1.53903369140625 0.4215000000000001 1.50003369140625 0.44925000000000015 Q 1.46103369140625 0.4770000000000001 1.43403369140625 0.5205000000000002 Q 1.40703369140625 0.5640000000000002 1.39203369140625 0.6127500000000001 Q 1.37703369140625 0.6615000000000002 1.37703369140625 0.7035000000000001 L 1.37703369140625 1.0215 Q 1.37703369140625 1.0950000000000002 1.41978369140625 1.1197500000000002 Q 1.4625336914062501 1.1445 1.53603369140625 1.1445 L 1.53603369140625 1.1760000000000002 Q 1.50153369140625 1.1745 1.43853369140625 1.1722500000000002 Q 1.37553369140625 1.1700000000000002 1.30503369140625 1.1700000000000002 Q 1.25403369140625 1.1700000000000002 1.20378369140625 1.1722500000000002 Q 1.15353369140625 1.1745 1.12803369140625 1.1760000000000002 L 1.12803369140625 1.1445 Q 1.18953369140625 1.1445 1.21578369140625 1.122 Q 1.24203369140625 1.0995000000000001 1.24203369140625 1.0365000000000002 L 1.24203369140625 0.5670000000000002 Q 1.24203369140625 0.49950000000000017 1.21803369140625 0.46725000000000017 Q 1.19403369140625 0.43500000000000016 1.12803369140625 0.43500000000000016 L 1.12803369140625 0.4035000000000002 Q 1.17603369140625 0.40800000000000014 1.22103369140625 0.40800000000000014 Q 1.26453369140625 0.40800000000000014 1.30428369140625 0.40275000000000016 Q 1.34403369140625 0.3975000000000002 1.37703369140625 0.3870000000000001 L 1.37703369140625 0.5745000000000001 Q 1.39353369140625 0.5310000000000001 1.42428369140625 0.4867500000000001 Q 1.45503369140625 0.4425000000000001 1.4985336914062501 0.4125000000000001 Q 1.54203369140625 0.3825000000000002 1.59453369140625 0.3825000000000002 M 2.476544677734375 0.3870000000000001 L 2.476544677734375 1.0140000000000002 Q 2.476544677734375 1.0815000000000001 2.501294677734375 1.1137500000000002 Q 2.526044677734375 1.1460000000000001 2.590544677734375 1.1460000000000001 L 2.590544677734375 1.1775000000000002 Q 2.544044677734375 1.1730000000000003 2.497544677734375 1.1730000000000003 Q 2.454044677734375 1.1730000000000003 2.4142946777343752 1.1775000000000002 Q 2.374544677734375 1.1820000000000002 2.341544677734375 1.1940000000000002 L 2.341544677734375 1.0170000000000001 Q 2.304044677734375 1.1145 2.235794677734375 1.15575 Q 2.167544677734375 1.197 2.095544677734375 1.197 Q 2.043044677734375 1.197 2.004044677734375 1.1820000000000002 Q 1.965044677734375 1.1670000000000003 1.939544677734375 1.1400000000000001 Q 1.911044677734375 1.11 1.900544677734375 1.062 Q 1.890044677734375 1.0140000000000002 1.890044677734375 0.9435000000000001 L 1.890044677734375 0.5670000000000002 Q 1.890044677734375 0.49950000000000017 1.866044677734375 0.46725000000000017 Q 1.842044677734375 0.43500000000000016 1.776044677734375 0.43500000000000016 L 1.776044677734375 0.4035000000000002 Q 1.824044677734375 0.40800000000000014 1.869044677734375 0.40800000000000014 Q 1.912544677734375 0.40800000000000014 1.952294677734375 0.40275000000000016 Q 1.992044677734375 0.3975000000000002 2.025044677734375 0.3870000000000001 L 2.025044677734375 0.9765000000000001 Q 2.025044677734375 1.0230000000000001 2.031044677734375 1.062 Q 2.037044677734375 1.1010000000000002 2.061044677734375 1.1250000000000002 Q 2.085044677734375 1.1490000000000002 2.139044677734375 1.1490000000000002 Q 2.197544677734375 1.1490000000000002 2.243294677734375 1.1130000000000002 Q 2.289044677734375 1.0770000000000002 2.315294677734375 1.0155 Q 2.341544677734375 0.9540000000000002 2.341544677734375 0.8775000000000002 L 2.341544677734375 0.5670000000000002 Q 2.341544677734375 0.49950000000000017 2.317544677734375 0.46725000000000017 Q 2.293544677734375 0.43500000000000016 2.2275446777343753 0.43500000000000016 L 2.2275446777343753 0.4035000000000002 Q 2.275544677734375 0.40800000000000014 2.3205446777343752 0.40800000000000014 Q 2.364044677734375 0.40800000000000014 2.403794677734375 0.40275000000000016 Q 2.443544677734375 0.3975000000000002 2.476544677734375 0.3870000000000001 M 2.90853515625 0.15450000000000008 L 2.90853515625 0.40500000000000014 L 3.13053515625 0.40500000000000014 L 3.13053515625 0.43500000000000016 L 2.90853515625 0.43500000000000016 L 2.90853515625 1.0155 Q 2.90853515625 1.086 2.93403515625 1.1145 Q 2.95953515625 1.1430000000000002 3.0045351562500002 1.1430000000000002 Q 3.04953515625 1.1430000000000002 3.08253515625 1.1062500000000002 Q 3.11553515625 1.0695000000000001 3.13953515625 0.9825000000000002 L 3.1695351562500003 0.9900000000000002 Q 3.15453515625 1.0770000000000002 3.11028515625 1.1370000000000002 Q 3.06603515625 1.197 2.97453515625 1.197 Q 2.92353515625 1.197 2.89053515625 1.1842500000000002 Q 2.85753515625 1.1715000000000002 2.83203515625 1.1475000000000002 Q 2.79903515625 1.1130000000000002 2.78628515625 1.0650000000000002 Q 2.77353515625 1.0170000000000001 2.77353515625 0.9375000000000001 L 2.77353515625 0.43500000000000016 L 2.62953515625 0.43500000000000016 L 2.62953515625 0.40500000000000014 L 2.77353515625 0.40500000000000014 L 2.77353515625 0.1755000000000002 Q 2.81103515625 0.17400000000000015 2.84553515625 0.1695000000000002 Q 2.88003515625 0.16500000000000004 2.90853515625 0.15450000000000008 M 3.466541015625 0.3825000000000002 Q 3.526541015625 0.3825000000000002 3.568541015625 0.40200000000000014 Q 3.610541015625 0.4215000000000001 3.6300410156250003 0.43800000000000017 Q 3.679541015625 0.47850000000000015 3.690041015625 0.3840000000000001 L 3.7245410156250003 0.3840000000000001 Q 3.721541015625 0.42600000000000016 3.720041015625 0.4837500000000001 Q 3.718541015625 0.5415000000000001 3.718541015625 0.6390000000000001 L 3.684041015625 0.6390000000000001 Q 3.675041015625 0.5835000000000001 3.6532910156250002 0.5310000000000001 Q 3.631541015625 0.47850000000000015 3.589541015625 0.4447500000000001 Q 3.547541015625 0.41100000000000014 3.480041015625 0.41100000000000014 Q 3.427541015625 0.41100000000000014 3.392291015625 0.44025000000000014 Q 3.357041015625 0.46950000000000014 3.357041015625 0.5265000000000002 Q 3.357041015625 0.5715000000000001 3.384041015625 0.6037500000000001 Q 3.411041015625 0.6360000000000001 3.454541015625 0.6637500000000002 Q 3.498041015625 0.6915000000000002 3.549041015625 0.7245000000000001 Q 3.6060410156250002 0.7605000000000002 3.652541015625 0.7980000000000002 Q 3.699041015625 0.8355000000000001 3.726791015625 0.8805000000000002 Q 3.754541015625 0.9255000000000002 3.754541015625 0.9870000000000001 Q 3.754541015625 1.056 3.718541015625 1.1025000000000003 Q 3.682541015625 1.1490000000000002 3.624791015625 1.1730000000000003 Q 3.567041015625 1.197 3.498041015625 1.197 Q 3.465041015625 1.197 3.435791015625 1.19175 Q 3.406541015625 1.1865 3.379541015625 1.1760000000000002 Q 3.364541015625 1.1685 3.348791015625 1.1580000000000001 Q 3.333041015625 1.1475000000000002 3.318041015625 1.1355000000000002 Q 3.303041015625 1.1235000000000002 3.291041015625 1.1362500000000002 Q 3.279041015625 1.1490000000000002 3.273041015625 1.1865 L 3.238541015625 1.1865 Q 3.241541015625 1.1385 3.243041015625 1.0695000000000001 Q 3.244541015625 1.0005000000000002 3.244541015625 0.8865000000000002 L 3.279041015625 0.8865000000000002 Q 3.289541015625 0.9705000000000001 3.309041015625 1.0335 Q 3.328541015625 1.0965000000000003 3.370541015625 1.1317500000000003 Q 3.412541015625 1.1670000000000003 3.487541015625 1.1670000000000003 Q 3.517541015625 1.1670000000000003 3.548291015625 1.1535000000000002 Q 3.579041015625 1.1400000000000001 3.600041015625 1.1085000000000003 Q 3.621041015625 1.0770000000000002 3.621041015625 1.0245000000000002 Q 3.621041015625 0.9585000000000001 3.573041015625 0.9165000000000001 Q 3.525041015625 0.8745000000000002 3.451541015625 0.8280000000000001 Q 3.397541015625 0.7935000000000001 3.350291015625 0.7590000000000001 Q 3.303041015625 0.7245000000000001 3.273791015625 0.6810000000000002 Q 3.244541015625 0.6375000000000002 3.244541015625 0.5760000000000002 Q 3.244541015625 0.5085000000000002 3.275291015625 0.4657500000000001 Q 3.306041015625 0.42300000000000015 3.357041015625 0.40275000000000016 Q 3.408041015625 0.3825000000000002 3.466541015625 0.3825000000000002 M 4.5660732421875 0.4035000000000002 L 4.5660732421875 0.4335000000000001 Q 4.5375732421875 0.4365000000000001 4.5135732421875 0.4590000000000002 Q 4.4895732421875 0.48150000000000015 4.4685732421874995 0.5385000000000001 L 4.2225732421875 1.1835000000000002 L 4.1970732421875 1.1835000000000002 L 3.9210732421875 0.5190000000000001 Q 3.8925732421875 0.46050000000000013 3.8648232421875 0.4477500000000001 Q 3.8370732421875 0.43500000000000016 3.8190732421875 0.43500000000000016 L 3.8190732421875 0.4035000000000002 Q 3.8520732421875 0.40800000000000014 3.8880732421875 0.4102500000000001 Q 3.9240732421875 0.4125000000000001 3.9660732421875 0.4125000000000001 Q 4.0125732421875 0.4125000000000001 4.0643232421875 0.4095000000000001 Q 4.1160732421875 0.4065000000000002 4.1610732421875 0.4035000000000002 L 4.1610732421875 0.43500000000000016 Q 4.1235732421875 0.43500000000000016 4.0943232421874995 0.44025000000000014 Q 4.0650732421875 0.4455000000000001 4.0575732421875 0.4717500000000001 Q 4.0500732421875 0.4980000000000001 4.0755732421875 0.5610000000000002 L 4.2600732421875 1.0185000000000002 L 4.2510732421875 1.0215 L 4.4220732421874995 0.5745000000000001 Q 4.4415732421875 0.5250000000000001 4.4378232421875 0.49575000000000014 Q 4.4340732421875 0.46650000000000014 4.4070732421875 0.4515000000000001 Q 4.3800732421875 0.4365000000000001 4.3260732421875 0.4335000000000001 L 4.3260732421875 0.4035000000000002 Q 4.3530732421875005 0.40500000000000014 4.3725732421875 0.40575000000000017 Q 4.3920732421875 0.4065000000000002 4.4108232421875 0.4072500000000001 Q 4.4295732421875 0.40800000000000014 4.4520732421875 0.40800000000000014 Q 4.4865732421875 0.40800000000000014 4.5143232421875 0.4065000000000002 Q 4.5420732421875 0.40500000000000014 4.5660732421875 0.4035000000000002 M 4.2225732421875 1.1835000000000002 L 4.1715732421875 1.314 Q 4.1565732421875 1.3515000000000001 4.1408232421875 1.3770000000000002 Q 4.1250732421875 1.4025 4.1070732421875 1.419 Q 4.0830732421875 1.4415000000000002 4.0500732421875 1.44975 Q 4.0170732421875 1.4580000000000002 3.9900732421875 1.4580000000000002 Q 3.9615732421875 1.4580000000000002 3.9383232421875 1.4475000000000002 Q 3.9150732421875 1.4370000000000003 3.9015732421875 1.4167500000000002 Q 3.8880732421875 1.3965 3.8880732421875 1.368 Q 3.8880732421875 1.332 3.9090732421875 1.3102500000000001 Q 3.9300732421875 1.2885000000000002 3.9675732421875 1.2885000000000002 Q 3.9990732421875 1.2885000000000002 4.0215732421875 1.3065000000000002 Q 4.0440732421875 1.3245000000000002 4.0440732421875 1.3590000000000002 Q 4.0440732421875 1.3845 4.0320732421875 1.4010000000000002 Q 4.0200732421875 1.4175000000000002 4.0035732421875 1.4265 Q 4.0065732421875 1.4280000000000002 4.0088232421875 1.4280000000000002 Q 4.0110732421875 1.4280000000000002 4.0125732421875 1.4280000000000002 Q 4.0530732421875 1.4280000000000002 4.0845732421875 1.4002500000000002 Q 4.1160732421875 1.3725 4.1400732421875 1.3110000000000002 L 4.1940732421875 1.1715000000000002 L 4.2225732421875 1.1835000000000002 M 4.882587158203125 0.3825000000000002 Q 4.942587158203125 0.3825000000000002 4.984587158203125 0.40200000000000014 Q 5.026587158203125 0.4215000000000001 5.046087158203125 0.43800000000000017 Q 5.095587158203125 0.47850000000000015 5.106087158203125 0.3840000000000001 L 5.140587158203125 0.3840000000000001 Q 5.137587158203125 0.42600000000000016 5.136087158203125 0.4837500000000001 Q 5.134587158203125 0.5415000000000001 5.134587158203125 0.6390000000000001 L 5.100087158203125 0.6390000000000001 Q 5.091087158203125 0.5835000000000001 5.069337158203125 0.5310000000000001 Q 5.047587158203125 0.47850000000000015 5.005587158203125 0.4447500000000001 Q 4.963587158203125 0.41100000000000014 4.896087158203125 0.41100000000000014 Q 4.843587158203125 0.41100000000000014 4.808337158203125 0.44025000000000014 Q 4.773087158203125 0.46950000000000014 4.773087158203125 0.5265000000000002 Q 4.773087158203125 0.5715000000000001 4.800087158203125 0.6037500000000001 Q 4.827087158203125 0.6360000000000001 4.870587158203125 0.6637500000000002 Q 4.914087158203125 0.6915000000000002 4.965087158203125 0.7245000000000001 Q 5.022087158203125 0.7605000000000002 5.068587158203125 0.7980000000000002 Q 5.115087158203125 0.8355000000000001 5.142837158203125 0.8805000000000002 Q 5.170587158203125 0.9255000000000002 5.170587158203125 0.9870000000000001 Q 5.170587158203125 1.056 5.134587158203125 1.1025000000000003 Q 5.0985871582031255 1.1490000000000002 5.040837158203125 1.1730000000000003 Q 4.983087158203125 1.197 4.914087158203125 1.197 Q 4.881087158203125 1.197 4.851837158203125 1.19175 Q 4.822587158203125 1.1865 4.795587158203125 1.1760000000000002 Q 4.780587158203125 1.1685 4.764837158203125 1.1580000000000001 Q 4.749087158203125 1.1475000000000002 4.734087158203125 1.1355000000000002 Q 4.719087158203125 1.1235000000000002 4.707087158203125 1.1362500000000002 Q 4.695087158203125 1.1490000000000002 4.689087158203125 1.1865 L 4.654587158203125 1.1865 Q 4.657587158203125 1.1385 4.659087158203125 1.0695000000000001 Q 4.660587158203125 1.0005000000000002 4.660587158203125 0.8865000000000002 L 4.695087158203125 0.8865000000000002 Q 4.705587158203125 0.9705000000000001 4.725087158203125 1.0335 Q 4.744587158203125 1.0965000000000003 4.786587158203125 1.1317500000000003 Q 4.828587158203125 1.1670000000000003 4.903587158203125 1.1670000000000003 Q 4.9335871582031245 1.1670000000000003 4.964337158203125 1.1535000000000002 Q 4.995087158203125 1.1400000000000001 5.016087158203125 1.1085000000000003 Q 5.037087158203125 1.0770000000000002 5.037087158203125 1.0245000000000002 Q 5.037087158203125 0.9585000000000001 4.989087158203125 0.9165000000000001 Q 4.941087158203125 0.8745000000000002 4.867587158203125 0.8280000000000001 Q 4.813587158203125 0.7935000000000001 4.766337158203125 0.7590000000000001 Q 4.719087158203125 0.7245000000000001 4.689837158203125 0.6810000000000002 Q 4.660587158203125 0.6375000000000002 4.660587158203125 0.5760000000000002 Q 4.660587158203125 0.5085000000000002 4.691337158203125 0.4657500000000001 Q 4.722087158203125 0.42300000000000015 4.773087158203125 0.40275000000000016 Q 4.824087158203125 0.3825000000000002 4.882587158203125 0.3825000000000002 M 6.46667431640625 0.1140000000000001 Q 6.46067431640625 0.17100000000000004 6.45842431640625 0.22425000000000017 Q 6.45617431640625 0.2775000000000002 6.45617431640625 0.30600000000000016 Q 6.45617431640625 0.3420000000000002 6.45767431640625 0.37350000000000017 Q 6.45917431640625 0.40500000000000014 6.46067431640625 0.42900000000000016 L 6.42617431640625 0.42900000000000016 Q 6.41567431640625 0.3240000000000002 6.39767431640625 0.2632500000000001 Q 6.37967431640625 0.20250000000000012 6.33467431640625 0.1755000000000002 Q 6.28967431640625 0.14850000000000008 6.19517431640625 0.14850000000000008 L 6.11417431640625 0.14850000000000008 L 6.11417431640625 1.0020000000000002 Q 6.11417431640625 1.062 6.12542431640625 1.092 Q 6.13667431640625 1.122 6.16967431640625 1.1325 Q 6.20267431640625 1.1430000000000002 6.26567431640625 1.1460000000000001 L 6.26567431640625 1.1760000000000002 Q 6.22667431640625 1.1730000000000003 6.16667431640625 1.1722500000000002 Q 6.1066743164062505 1.1715000000000002 6.04517431640625 1.1715000000000002 Q 5.97767431640625 1.1715000000000002 5.91842431640625 1.1722500000000002 Q 5.85917431640625 1.1730000000000003 5.82317431640625 1.1760000000000002 L 5.82317431640625 1.1460000000000001 Q 5.88617431640625 1.1430000000000002 5.9191743164062505 1.1325 Q 5.95217431640625 1.122 5.96342431640625 1.092 Q 5.97467431640625 1.062 5.97467431640625 1.0020000000000002 L 5.97467431640625 0.14850000000000008 L 5.89367431640625 0.14850000000000008 Q 5.80067431640625 0.14850000000000008 5.75492431640625 0.1755000000000002 Q 5.70917431640625 0.20250000000000012 5.69117431640625 0.2632500000000001 Q 5.67317431640625 0.3240000000000002 5.66267431640625 0.42900000000000016 L 5.62817431640625 0.42900000000000016 Q 5.63117431640625 0.40500000000000014 5.63192431640625 0.37350000000000017 Q 5.63267431640625 0.3420000000000002 5.63267431640625 0.30600000000000016 Q 5.63267431640625 0.2775000000000002 5.63042431640625 0.22425000000000017 Q 5.62817431640625 0.17100000000000004 5.62217431640625 0.1140000000000001 Q 5.68517431640625 0.11550000000000016 5.75942431640625 0.11700000000000021 Q 5.83367431640625 0.11850000000000005 5.90867431640625 0.11850000000000005 Q 5.98367431640625 0.11850000000000005 6.04517431640625 0.11850000000000005 Q 6.1066743164062505 0.11850000000000005 6.18092431640625 0.11850000000000005 Q 6.25517431640625 0.11850000000000005 6.33017431640625 0.11700000000000021 Q 6.40517431640625 0.11550000000000016 6.46667431640625 0.1140000000000001 M 6.853587158203125 0.3825000000000002 Q 6.985587158203125 0.3825000000000002 7.059837158203125 0.4627500000000001 Q 7.134087158203125 0.5430000000000001 7.134087158203125 0.7125000000000001 L 6.604587158203125 0.7125000000000001 L 6.603087158203125 0.6840000000000002 L 6.990087158203125 0.6840000000000002 Q 6.993087158203125 0.6105000000000002 6.978087158203125 0.5482500000000001 Q 6.963087158203125 0.4860000000000001 6.930837158203125 0.4485000000000001 Q 6.898587158203125 0.41100000000000014 6.847587158203125 0.41100000000000014 Q 6.778587158203125 0.41100000000000014 6.725337158203125 0.4800000000000001 Q 6.672087158203125 0.5490000000000002 6.661587158203125 0.6990000000000001 L 6.666087158203125 0.7050000000000001 Q 6.663087158203125 0.7275000000000001 6.661587158203125 0.7545000000000002 Q 6.660087158203125 0.7815000000000001 6.660087158203125 0.8085000000000002 Q 6.660087158203125 0.9105000000000001 6.693087158203125 0.9840000000000002 Q 6.726087158203125 1.0575 6.779337158203125 1.0957500000000002 Q 6.8325871582031255 1.1340000000000001 6.889587158203125 1.1340000000000001 Q 6.934587158203125 1.1340000000000001 6.975087158203125 1.1197500000000002 Q 7.015587158203125 1.1055000000000001 7.050087158203125 1.0725000000000002 Q 7.084587158203125 1.0395 7.110087158203125 0.9840000000000002 L 7.140087158203125 0.9960000000000002 Q 7.123587158203125 1.0455 7.086087158203125 1.092 Q 7.048587158203125 1.1385 6.991587158203125 1.16775 Q 6.934587158203125 1.197 6.859587158203125 1.197 Q 6.751587158203125 1.197 6.674337158203125 1.1475000000000002 Q 6.597087158203125 1.098 6.555837158203125 1.01025 Q 6.514587158203125 0.9225000000000001 6.514587158203125 0.8085000000000002 Q 6.514587158203125 0.6765000000000001 6.556587158203125 0.5812500000000002 Q 6.598587158203125 0.4860000000000001 6.675087158203125 0.43425000000000014 Q 6.751587158203125 0.3825000000000002 6.853587158203125 0.3825000000000002 M 7.623059326171875 0.3825000000000002 Q 7.671059326171875 0.3825000000000002 7.716059326171875 0.3945000000000002 Q 7.761059326171875 0.4065000000000002 7.797059326171875 0.4305000000000001 Q 7.831559326171875 0.4530000000000002 7.849559326171875 0.4822500000000002 Q 7.867559326171875 0.5115000000000002 7.867559326171875 0.5460000000000002 Q 7.867559326171875 0.5865000000000001 7.845059326171875 0.6082500000000002 Q 7.822559326171875 0.6300000000000001 7.788059326171875 0.6300000000000001 Q 7.7550593261718745 0.6300000000000001 7.730309326171875 0.6105000000000002 Q 7.705559326171875 0.5910000000000002 7.705559326171875 0.5550000000000002 Q 7.705559326171875 0.5205000000000002 7.724309326171875 0.49950000000000017 Q 7.743059326171875 0.47850000000000015 7.768559326171875 0.47250000000000014 Q 7.753559326171875 0.4455000000000001 7.715309326171875 0.4275000000000001 Q 7.677059326171875 0.4095000000000001 7.633559326171875 0.4095000000000001 Q 7.596059326171875 0.4095000000000001 7.558559326171875 0.4275000000000001 Q 7.521059326171875 0.4455000000000001 7.489559326171875 0.4867500000000001 Q 7.458059326171875 0.5280000000000001 7.438559326171875 0.5992500000000002 Q 7.419059326171875 0.6705000000000001 7.419059326171875 0.7770000000000001 Q 7.419059326171875 0.9090000000000001 7.449059326171875 0.9870000000000001 Q 7.479059326171875 1.0650000000000002 7.527809326171875 1.0987500000000001 Q 7.576559326171875 1.1325 7.635059326171875 1.1325 Q 7.674059326171875 1.1325 7.714559326171875 1.1175000000000002 Q 7.7550593261718745 1.1025000000000003 7.791059326171875 1.06875 Q 7.8270593261718755 1.0350000000000001 7.852559326171875 0.9780000000000002 L 7.881059326171875 0.9885000000000002 Q 7.866059326171875 1.0365000000000002 7.831559326171875 1.0852500000000003 Q 7.797059326171875 1.1340000000000001 7.741559326171875 1.1655000000000002 Q 7.686059326171875 1.197 7.605059326171875 1.197 Q 7.512059326171875 1.197 7.437059326171875 1.1490000000000002 Q 7.362059326171875 1.1010000000000002 7.317809326171875 1.0117500000000001 Q 7.273559326171875 0.9225000000000001 7.273559326171875 0.7995000000000001 Q 7.273559326171875 0.6765000000000001 7.317809326171875 0.5827500000000001 Q 7.362059326171875 0.4890000000000001 7.441559326171875 0.4357500000000002 Q 7.521059326171875 0.3825000000000002 7.623059326171875 0.3825000000000002 M 8.21259375 0.0015000000000000568 L 8.21259375 0.5625000000000001 Q 8.25159375 0.46050000000000013 8.32134375 0.4215000000000001 Q 8.39109375 0.3825000000000002 8.46759375 0.3825000000000002 Q 8.52459375 0.3825000000000002 8.56284375 0.3975000000000002 Q 8.60109375 0.4125000000000001 8.62659375 0.4395000000000001 Q 8.65509375 0.46950000000000014 8.66709375 0.5145000000000002 Q 8.67909375 0.5595000000000001 8.67909375 0.6360000000000001 L 8.67909375 1.0365000000000002 Q 8.67909375 1.0995000000000001 8.70534375 1.122 Q 8.73159375 1.1445 8.79309375 1.1445 L 8.79309375 1.1760000000000002 Q 8.76759375 1.1745 8.71509375 1.1722500000000002 Q 8.66259375 1.1700000000000002 8.61309375 1.1700000000000002 Q 8.56359375 1.1700000000000002 8.51634375 1.1722500000000002 Q 8.46909375 1.1745 8.44509375 1.1760000000000002 L 8.44509375 1.1445 Q 8.49909375 1.1445 8.52159375 1.122 Q 8.54409375 1.0995000000000001 8.54409375 1.0365000000000002 L 8.54409375 0.6030000000000001 Q 8.54409375 0.5565000000000001 8.53659375 0.5175000000000002 Q 8.52909375 0.47850000000000015 8.50284375 0.4545000000000001 Q 8.47659375 0.4305000000000001 8.42259375 0.4305000000000001 Q 8.36109375 0.4305000000000001 8.31384375 0.4650000000000002 Q 8.26659375 0.49950000000000017 8.23959375 0.5610000000000002 Q 8.21259375 0.6225000000000002 8.21259375 0.7020000000000002 L 8.21259375 1.0365000000000002 Q 8.21259375 1.0995000000000001 8.23509375 1.122 Q 8.25759375 1.1445 8.31159375 1.1445 L 8.31159375 1.1760000000000002 Q 8.28759375 1.1745 8.24034375 1.1722500000000002 Q 8.19309375 1.1700000000000002 8.14359375 1.1700000000000002 Q 8.09409375 1.1700000000000002 8.04159375 1.1722500000000002 Q 7.98909375 1.1745 7.96359375 1.1760000000000002 L 7.96359375 1.1445 Q 8.02509375 1.1445 8.05134375 1.122 Q 8.07759375 1.0995000000000001 8.07759375 1.0365000000000002 L 8.07759375 0.1815000000000001 Q 8.07759375 0.1140000000000001 8.05359375 0.08175000000000021 Q 8.02959375 0.0495000000000001 7.96359375 0.0495000000000001 L 7.96359375 0.018000000000000238 Q 8.01159375 0.022500000000000187 8.05659375 0.022500000000000187 Q 8.10009375 0.022500000000000187 8.13984375 0.01725000000000021 Q 8.17959375 0.012000000000000233 8.21259375 0.0015000000000000568 M 9.36311279296875 0.3825000000000002 Q 9.42011279296875 0.3825000000000002 9.45836279296875 0.3975000000000002 Q 9.496612792968751 0.4125000000000001 9.52211279296875 0.4395000000000001 Q 9.55061279296875 0.46950000000000014 9.56261279296875 0.5145000000000002 Q 9.57461279296875 0.5595000000000001 9.57461279296875 0.6360000000000001 L 9.57461279296875 1.0365000000000002 Q 9.57461279296875 1.0995000000000001 9.60086279296875 1.122 Q 9.62711279296875 1.1445 9.68861279296875 1.1445 L 9.68861279296875 1.1760000000000002 Q 9.66311279296875 1.1745 9.61061279296875 1.1722500000000002 Q 9.55811279296875 1.1700000000000002 9.50861279296875 1.1700000000000002 Q 9.45911279296875 1.1700000000000002 9.41186279296875 1.1722500000000002 Q 9.36461279296875 1.1745 9.34061279296875 1.1760000000000002 L 9.34061279296875 1.1445 Q 9.39461279296875 1.1445 9.41711279296875 1.122 Q 9.43961279296875 1.0995000000000001 9.43961279296875 1.0365000000000002 L 9.43961279296875 0.6030000000000001 Q 9.43961279296875 0.5565000000000001 9.43211279296875 0.5175000000000002 Q 9.42461279296875 0.47850000000000015 9.39836279296875 0.4545000000000001 Q 9.37211279296875 0.4305000000000001 9.31811279296875 0.4305000000000001 Q 9.25511279296875 0.4305000000000001 9.20786279296875 0.46650000000000014 Q 9.16061279296875 0.5025000000000002 9.13436279296875 0.5647500000000002 Q 9.10811279296875 0.6270000000000001 9.10811279296875 0.7035000000000001 L 9.10811279296875 1.0365000000000002 Q 9.10811279296875 1.0995000000000001 9.13061279296875 1.122 Q 9.15311279296875 1.1445 9.20711279296875 1.1445 L 9.20711279296875 1.1760000000000002 Q 9.18311279296875 1.1745 9.13586279296875 1.1722500000000002 Q 9.08861279296875 1.1700000000000002 9.03911279296875 1.1700000000000002 Q 8.98961279296875 1.1700000000000002 8.93711279296875 1.1722500000000002 Q 8.88461279296875 1.1745 8.85911279296875 1.1760000000000002 L 8.85911279296875 1.1445 Q 8.92061279296875 1.1445 8.94686279296875 1.122 Q 8.97311279296875 1.0995000000000001 8.97311279296875 1.0365000000000002 L 8.97311279296875 0.5670000000000002 Q 8.97311279296875 0.49950000000000017 8.94911279296875 0.46725000000000017 Q 8.92511279296875 0.43500000000000016 8.85911279296875 0.43500000000000016 L 8.85911279296875 0.4035000000000002 Q 8.90711279296875 0.40800000000000014 8.95211279296875 0.40800000000000014 Q 8.99561279296875 0.40800000000000014 9.03536279296875 0.40275000000000016 Q 9.07511279296875 0.3975000000000002 9.10811279296875 0.3870000000000001 L 9.10811279296875 0.5640000000000002 Q 9.14711279296875 0.4620000000000002 9.21686279296875 0.4222500000000001 Q 9.28661279296875 0.3825000000000002 9.36311279296875 0.3825000000000002 M 10.122090087890625 0.3825000000000002 Q 10.218090087890625 0.3825000000000002 10.294590087890626 0.4245000000000001 Q 10.371090087890625 0.46650000000000014 10.416840087890625 0.5565000000000001 Q 10.462590087890625 0.6465000000000002 10.462590087890625 0.7905000000000002 Q 10.462590087890625 0.9345000000000001 10.416840087890625 1.0237500000000002 Q 10.371090087890625 1.1130000000000002 10.294590087890626 1.1550000000000002 Q 10.218090087890625 1.197 10.122090087890625 1.197 Q 10.027590087890625 1.197 9.950340087890625 1.1550000000000002 Q 9.873090087890626 1.1130000000000002 9.827340087890626 1.0237500000000002 Q 9.781590087890624 0.9345000000000001 9.781590087890624 0.7905000000000002 Q 9.781590087890624 0.6465000000000002 9.827340087890626 0.5565000000000001 Q 9.873090087890626 0.46650000000000014 9.950340087890625 0.4245000000000001 Q 10.027590087890625 0.3825000000000002 10.122090087890625 0.3825000000000002 M 10.122090087890625 0.4125000000000001 Q 10.036590087890625 0.4125000000000001 9.981840087890625 0.5010000000000001 Q 9.927090087890624 0.5895000000000001 9.927090087890624 0.7905000000000002 Q 9.927090087890624 0.9915000000000002 9.981840087890625 1.07925 Q 10.036590087890625 1.1670000000000003 10.122090087890625 1.1670000000000003 Q 10.207590087890624 1.1670000000000003 10.262340087890625 1.07925 Q 10.317090087890625 0.9915000000000002 10.317090087890625 0.7905000000000002 Q 10.317090087890625 0.5895000000000001 10.262340087890625 0.5010000000000001 Q 10.207590087890624 0.4125000000000001 10.122090087890625 0.4125000000000001 M 10.800035888671875 2.220446049250313e-16 L 10.800035888671875 1.0365000000000002 Q 10.800035888671875 1.0995000000000001 10.826285888671874 1.122 Q 10.852535888671875 1.1445 10.914035888671876 1.1445 L 10.914035888671876 1.1760000000000002 Q 10.888535888671875 1.1745 10.836785888671875 1.1722500000000002 Q 10.785035888671874 1.1700000000000002 10.732535888671874 1.1700000000000002 Q 10.681535888671876 1.1700000000000002 10.629035888671876 1.1722500000000002 Q 10.576535888671875 1.1745 10.551035888671874 1.1760000000000002 L 10.551035888671874 1.1445 Q 10.612535888671875 1.1445 10.638785888671874 1.122 Q 10.665035888671875 1.0995000000000001 10.665035888671875 1.0365000000000002 L 10.665035888671875 0.18000000000000016 Q 10.665035888671875 0.11250000000000004 10.641035888671874 0.08025000000000015 Q 10.617035888671875 0.04800000000000004 10.551035888671874 0.04800000000000004 L 10.551035888671874 0.01650000000000018 Q 10.599035888671875 0.02100000000000013 10.644035888671874 0.02100000000000013 Q 10.687535888671874 0.02100000000000013 10.727285888671876 0.015750000000000153 Q 10.767035888671876 0.010500000000000176 10.800035888671875 2.220446049250313e-16 M 11.343037353515625 0.3825000000000002 Q 11.439037353515625 0.3825000000000002 11.515537353515626 0.4245000000000001 Q 11.592037353515625 0.46650000000000014 11.637787353515625 0.5565000000000001 Q 11.683537353515625 0.6465000000000002 11.683537353515625 0.7905000000000002 Q 11.683537353515625 0.9345000000000001 11.637787353515625 1.0237500000000002 Q 11.592037353515625 1.1130000000000002 11.515537353515626 1.1550000000000002 Q 11.439037353515625 1.197 11.343037353515625 1.197 Q 11.248537353515625 1.197 11.171287353515625 1.1550000000000002 Q 11.094037353515626 1.1130000000000002 11.048287353515626 1.0237500000000002 Q 11.002537353515624 0.9345000000000001 11.002537353515624 0.7905000000000002 Q 11.002537353515624 0.6465000000000002 11.048287353515626 0.5565000000000001 Q 11.094037353515626 0.46650000000000014 11.171287353515625 0.4245000000000001 Q 11.248537353515625 0.3825000000000002 11.343037353515625 0.3825000000000002 M 11.343037353515625 0.4125000000000001 Q 11.257537353515625 0.4125000000000001 11.202787353515625 0.5010000000000001 Q 11.148037353515624 0.5895000000000001 11.148037353515624 0.7905000000000002 Q 11.148037353515624 0.9915000000000002 11.202787353515625 1.07925 Q 11.257537353515625 1.1670000000000003 11.343037353515625 1.1670000000000003 Q 11.428537353515624 1.1670000000000003 11.483287353515625 1.07925 Q 11.538037353515625 0.9915000000000002 11.538037353515625 0.7905000000000002 Q 11.538037353515625 0.5895000000000001 11.483287353515625 0.5010000000000001 Q 11.428537353515624 0.4125000000000001 11.343037353515625 0.4125000000000001 M 12.073497802734375 1.4580000000000002 Q 11.993997802734375 1.4580000000000002 11.923497802734374 1.4415000000000002 Q 11.852997802734375 1.4250000000000003 11.810247802734375 1.3897500000000003 Q 11.767497802734376 1.3545000000000003 11.767497802734376 1.3005000000000002 Q 11.767497802734376 1.2480000000000002 11.809497802734375 1.2105000000000001 Q 11.851497802734375 1.1730000000000003 11.923497802734374 1.1535000000000002 L 11.932497802734375 1.1775000000000002 Q 11.899497802734375 1.1880000000000002 11.879997802734374 1.2195000000000003 Q 11.860497802734375 1.2510000000000001 11.860497802734375 1.2900000000000003 Q 11.860497802734375 1.3590000000000002 11.924247802734374 1.39575 Q 11.987997802734375 1.4325 12.089997802734375 1.4325 Q 12.157497802734374 1.4325 12.221997802734375 1.4152500000000001 Q 12.286497802734376 1.3980000000000001 12.328497802734375 1.3575000000000002 Q 12.370497802734375 1.3170000000000002 12.370497802734375 1.2510000000000001 Q 12.370497802734375 1.2015000000000002 12.335247802734376 1.1692500000000001 Q 12.299997802734374 1.1370000000000002 12.196497802734376 1.1370000000000002 L 12.085497802734375 1.1370000000000002 Q 12.037497802734375 1.1370000000000002 11.992497802734375 1.1295000000000002 Q 11.947497802734375 1.122 11.918997802734374 1.098 Q 11.890497802734375 1.074 11.890497802734375 1.0245000000000002 Q 11.890497802734375 0.9735000000000001 11.932497802734375 0.9262500000000001 Q 11.974497802734374 0.8790000000000002 12.086997802734375 0.8295000000000001 L 12.104997802734376 0.8430000000000002 Q 12.053997802734376 0.8700000000000001 12.016497802734374 0.8977500000000002 Q 11.978997802734375 0.9255000000000002 11.978997802734375 0.9630000000000002 Q 11.978997802734375 1.0110000000000001 12.050997802734376 1.0110000000000001 L 12.238497802734376 1.0110000000000001 Q 12.301497802734374 1.0110000000000001 12.354747802734375 1.0290000000000001 Q 12.407997802734375 1.0470000000000002 12.440997802734374 1.086 Q 12.473997802734376 1.1250000000000002 12.473997802734376 1.1880000000000002 Q 12.473997802734376 1.2585000000000002 12.428997802734376 1.3200000000000003 Q 12.383997802734376 1.3815000000000002 12.294747802734374 1.41975 Q 12.205497802734374 1.4580000000000002 12.073497802734375 1.4580000000000002 M 12.080997802734375 0.8565000000000002 Q 12.007497802734376 0.8565000000000002 11.947497802734375 0.8317500000000002 Q 11.887497802734375 0.8070000000000002 11.852997802734375 0.7545000000000002 Q 11.818497802734376 0.7020000000000002 11.818497802734376 0.6195000000000002 Q 11.818497802734376 0.5370000000000001 11.852997802734375 0.48450000000000015 Q 11.887497802734375 0.43200000000000016 11.947497802734375 0.4072500000000001 Q 12.007497802734376 0.3825000000000002 12.080997802734375 0.3825000000000002 Q 12.155997802734374 0.3825000000000002 12.215247802734375 0.4072500000000001 Q 12.274497802734375 0.43200000000000016 12.308997802734375 0.48450000000000015 Q 12.343497802734374 0.5370000000000001 12.343497802734374 0.6195000000000002 Q 12.343497802734374 0.7020000000000002 12.308997802734375 0.7545000000000002 Q 12.274497802734375 0.8070000000000002 12.215247802734375 0.8317500000000002 Q 12.155997802734374 0.8565000000000002 12.080997802734375 0.8565000000000002 M 12.080997802734375 0.8295000000000001 Q 12.137997802734375 0.8295000000000001 12.170247802734375 0.7845000000000002 Q 12.202497802734374 0.7395000000000002 12.202497802734374 0.6195000000000002 Q 12.202497802734374 0.49950000000000017 12.170247802734375 0.4545000000000001 Q 12.137997802734375 0.4095000000000001 12.080997802734375 0.4095000000000001 Q 12.025497802734375 0.4095000000000001 11.992497802734375 0.4545000000000001 Q 11.959497802734376 0.49950000000000017 11.959497802734376 0.6195000000000002 Q 11.959497802734376 0.7395000000000002 11.992497802734375 0.7845000000000002 Q 12.025497802734375 0.8295000000000001 12.080997802734375 0.8295000000000001 M 12.296997802734374 0.5070000000000001 L 12.269997802734375 0.49650000000000016 Q 12.290997802734376 0.4455000000000001 12.341997802734374 0.4065000000000002 Q 12.392997802734374 0.36750000000000016 12.448497802734375 0.36750000000000016 Q 12.487497802734374 0.36750000000000016 12.511497802734375 0.3892500000000001 Q 12.535497802734374 0.41100000000000014 12.535497802734374 0.4545000000000001 Q 12.535497802734374 0.5010000000000001 12.510747802734375 0.5197500000000002 Q 12.485997802734374 0.5385000000000001 12.460497802734375 0.5385000000000001 Q 12.437997802734374 0.5385000000000001 12.418497802734375 0.5227500000000002 Q 12.398997802734375 0.5070000000000001 12.395997802734374 0.47250000000000014 Q 12.392997802734374 0.43800000000000017 12.416997802734375 0.3840000000000001 L 12.436497802734374 0.3885000000000002 Q 12.373497802734375 0.4125000000000001 12.346497802734374 0.4387500000000002 Q 12.319497802734375 0.4650000000000002 12.296997802734374 0.5070000000000001 M 12.7605205078125 0.028500000000000192 Q 12.7995205078125 0.028500000000000192 12.8280205078125 0.05700000000000016 Q 12.8565205078125 0.08550000000000013 12.8565205078125 0.12450000000000006 Q 12.8565205078125 0.1635000000000002 12.8280205078125 0.19200000000000017 Q 12.7995205078125 0.22050000000000014 12.7605205078125 0.22050000000000014 Q 12.7215205078125 0.22050000000000014 12.6930205078125 0.19200000000000017 Q 12.6645205078125 0.1635000000000002 12.6645205078125 0.12450000000000006 Q 12.6645205078125 0.08550000000000013 12.6930205078125 0.05700000000000016 Q 12.7215205078125 0.028500000000000192 12.7605205078125 0.028500000000000192 M 12.8385205078125 0.3870000000000001 L 12.8385205078125 1.0365000000000002 Q 12.8385205078125 1.0995000000000001 12.8647705078125 1.122 Q 12.8910205078125 1.1445 12.9525205078125 1.1445 L 12.9525205078125 1.1760000000000002 Q 12.9270205078125 1.1745 12.8752705078125 1.1722500000000002 Q 12.8235205078125 1.1700000000000002 12.7710205078125 1.1700000000000002 Q 12.7200205078125 1.1700000000000002 12.6675205078125 1.1722500000000002 Q 12.6150205078125 1.1745 12.5895205078125 1.1760000000000002 L 12.5895205078125 1.1445 Q 12.6510205078125 1.1445 12.6772705078125 1.122 Q 12.7035205078125 1.0995000000000001 12.7035205078125 1.0365000000000002 L 12.7035205078125 0.5670000000000002 Q 12.7035205078125 0.49950000000000017 12.6795205078125 0.46725000000000017 Q 12.6555205078125 0.43500000000000016 12.5895205078125 0.43500000000000016 L 12.5895205078125 0.4035000000000002 Q 12.6375205078125 0.40800000000000014 12.6825205078125 0.40800000000000014 Q 12.7260205078125 0.40800000000000014 12.7657705078125 0.40275000000000016 Q 12.8055205078125 0.3975000000000002 12.8385205078125 0.3870000000000001 M 13.393565185546874 0.3825000000000002 Q 13.525565185546874 0.3825000000000002 13.599815185546875 0.4627500000000001 Q 13.674065185546874 0.5430000000000001 13.674065185546874 0.7125000000000001 L 13.144565185546876 0.7125000000000001 L 13.143065185546876 0.6840000000000002 L 13.530065185546874 0.6840000000000002 Q 13.533065185546874 0.6105000000000002 13.518065185546876 0.5482500000000001 Q 13.503065185546875 0.4860000000000001 13.470815185546876 0.4485000000000001 Q 13.438565185546874 0.41100000000000014 13.387565185546874 0.41100000000000014 Q 13.318565185546875 0.41100000000000014 13.265315185546875 0.4800000000000001 Q 13.212065185546875 0.5490000000000002 13.201565185546874 0.6990000000000001 L 13.206065185546874 0.7050000000000001 Q 13.203065185546874 0.7275000000000001 13.201565185546874 0.7545000000000002 Q 13.200065185546874 0.7815000000000001 13.200065185546874 0.8085000000000002 Q 13.200065185546874 0.9105000000000001 13.233065185546875 0.9840000000000002 Q 13.266065185546875 1.0575 13.319315185546875 1.0957500000000002 Q 13.372565185546875 1.1340000000000001 13.429565185546876 1.1340000000000001 Q 13.474565185546876 1.1340000000000001 13.515065185546876 1.1197500000000002 Q 13.555565185546875 1.1055000000000001 13.590065185546875 1.0725000000000002 Q 13.624565185546874 1.0395 13.650065185546875 0.9840000000000002 L 13.680065185546875 0.9960000000000002 Q 13.663565185546876 1.0455 13.626065185546874 1.092 Q 13.588565185546875 1.1385 13.531565185546874 1.16775 Q 13.474565185546876 1.197 13.399565185546875 1.197 Q 13.291565185546874 1.197 13.214315185546875 1.1475000000000002 Q 13.137065185546875 1.098 13.095815185546876 1.01025 Q 13.054565185546876 0.9225000000000001 13.054565185546876 0.8085000000000002 Q 13.054565185546876 0.6765000000000001 13.096565185546876 0.5812500000000002 Q 13.138565185546875 0.4860000000000001 13.215065185546875 0.43425000000000014 Q 13.291565185546874 0.3825000000000002 13.393565185546874 0.3825000000000002 M 14.056537353515624 0.3825000000000002 Q 14.116537353515625 0.3825000000000002 14.158537353515625 0.40200000000000014 Q 14.200537353515625 0.4215000000000001 14.220037353515625 0.43800000000000017 Q 14.269537353515625 0.47850000000000015 14.280037353515626 0.3840000000000001 L 14.314537353515625 0.3840000000000001 Q 14.311537353515625 0.42600000000000016 14.310037353515625 0.4837500000000001 Q 14.308537353515625 0.5415000000000001 14.308537353515625 0.6390000000000001 L 14.274037353515626 0.6390000000000001 Q 14.265037353515625 0.5835000000000001 14.243287353515624 0.5310000000000001 Q 14.221537353515625 0.47850000000000015 14.179537353515625 0.4447500000000001 Q 14.137537353515626 0.41100000000000014 14.070037353515625 0.41100000000000014 Q 14.017537353515625 0.41100000000000014 13.982287353515625 0.44025000000000014 Q 13.947037353515626 0.46950000000000014 13.947037353515626 0.5265000000000002 Q 13.947037353515626 0.5715000000000001 13.974037353515625 0.6037500000000001 Q 14.001037353515626 0.6360000000000001 14.044537353515626 0.6637500000000002 Q 14.088037353515626 0.6915000000000002 14.139037353515626 0.7245000000000001 Q 14.196037353515624 0.7605000000000002 14.242537353515624 0.7980000000000002 Q 14.289037353515624 0.8355000000000001 14.316787353515625 0.8805000000000002 Q 14.344537353515625 0.9255000000000002 14.344537353515625 0.9870000000000001 Q 14.344537353515625 1.056 14.308537353515625 1.1025000000000003 Q 14.272537353515625 1.1490000000000002 14.214787353515625 1.1730000000000003 Q 14.157037353515625 1.197 14.088037353515626 1.197 Q 14.055037353515624 1.197 14.025787353515625 1.19175 Q 13.996537353515626 1.1865 13.969537353515625 1.1760000000000002 Q 13.954537353515626 1.1685 13.938787353515625 1.1580000000000001 Q 13.923037353515625 1.1475000000000002 13.908037353515626 1.1355000000000002 Q 13.893037353515625 1.1235000000000002 13.881037353515625 1.1362500000000002 Q 13.869037353515624 1.1490000000000002 13.863037353515624 1.1865 L 13.828537353515625 1.1865 Q 13.831537353515625 1.1385 13.833037353515625 1.0695000000000001 Q 13.834537353515625 1.0005000000000002 13.834537353515625 0.8865000000000002 L 13.869037353515624 0.8865000000000002 Q 13.879537353515625 0.9705000000000001 13.899037353515626 1.0335 Q 13.918537353515624 1.0965000000000003 13.960537353515624 1.1317500000000003 Q 14.002537353515624 1.1670000000000003 14.077537353515625 1.1670000000000003 Q 14.107537353515625 1.1670000000000003 14.138287353515626 1.1535000000000002 Q 14.169037353515625 1.1400000000000001 14.190037353515624 1.1085000000000003 Q 14.211037353515625 1.0770000000000002 14.211037353515625 1.0245000000000002 Q 14.211037353515625 0.9585000000000001 14.163037353515625 0.9165000000000001 Q 14.115037353515625 0.8745000000000002 14.041537353515626 0.8280000000000001 Q 13.987537353515625 0.7935000000000001 13.940287353515625 0.7590000000000001 Q 13.893037353515625 0.7245000000000001 13.863787353515624 0.6810000000000002 Q 13.834537353515625 0.6375000000000002 13.834537353515625 0.5760000000000002 Q 13.834537353515625 0.5085000000000002 13.865287353515624 0.4657500000000001 Q 13.896037353515625 0.42300000000000015 13.947037353515626 0.40275000000000016 Q 13.998037353515626 0.3825000000000002 14.056537353515624 0.3825000000000002" fill="#173054" fill-rule="nonzero"></path></g><g></g></g><defs><clipPath id="SvgjsClipPath2112"><path d=" M 0.9656265632050935 -13.033816453667939 h 12.483816453667938 v 12.483816453667938 h -12.483816453667938 Z"></path></clipPath><clipPath id="SvgjsClipPath2107979ef1cd-49ef-4205-b9f1-e0ecd36e79c4"><path d=" M 2.526103619913586 -11.267855866367052 L 11.888965960164539 -11.267855866367052 L 11.888965960164539 -2.3159605873008893 L 2.526103619913586 -2.3159605873008893 Z"></path></clipPath></defs></svg>